<mxfile host="Electron" modified="2024-08-23T14:13:28.402Z" agent="Mozilla/5.0 (Macintosh; Intel Mac OS X 10_15_7) AppleWebKit/537.36 (KHTML, like Gecko) draw.io/22.0.2 Chrome/114.0.5735.289 Electron/25.8.4 Safari/537.36" etag="1i1oWZeQ51mwnKaM1UEC" version="22.0.2" type="device">
  <diagram name="Page-1" id="T9s6vWNZBhBfi7gyQFEn">
    <mxGraphModel dx="4807" dy="3916" grid="1" gridSize="10" guides="1" tooltips="1" connect="1" arrows="1" fold="1" page="1" pageScale="1" pageWidth="827" pageHeight="1169" math="0" shadow="0">
      <root>
        <mxCell id="0" />
        <mxCell id="1" parent="0" />
        <mxCell id="jtiA2OvrKeA1y7BBMs1h-20" value="" style="whiteSpace=wrap;html=1;aspect=fixed;fillColor=#EA6B66;" parent="1" vertex="1">
          <mxGeometry x="360" y="360" width="80" height="80" as="geometry" />
        </mxCell>
        <mxCell id="jtiA2OvrKeA1y7BBMs1h-21" value="" style="whiteSpace=wrap;html=1;aspect=fixed;fillColor=#EA6B66;" parent="1" vertex="1">
          <mxGeometry x="440" y="360" width="80" height="80" as="geometry" />
        </mxCell>
        <mxCell id="jtiA2OvrKeA1y7BBMs1h-22" value="" style="whiteSpace=wrap;html=1;aspect=fixed;fillColor=#EA6B66;" parent="1" vertex="1">
          <mxGeometry x="520" y="360" width="80" height="80" as="geometry" />
        </mxCell>
        <mxCell id="jtiA2OvrKeA1y7BBMs1h-23" value="" style="whiteSpace=wrap;html=1;aspect=fixed;fillColor=#EA6B66;" parent="1" vertex="1">
          <mxGeometry x="600" y="360" width="80" height="80" as="geometry" />
        </mxCell>
        <mxCell id="jtiA2OvrKeA1y7BBMs1h-24" value="" style="whiteSpace=wrap;html=1;aspect=fixed;fillColor=#FAE637;" parent="1" vertex="1">
          <mxGeometry x="680" y="360" width="80" height="80" as="geometry" />
        </mxCell>
        <mxCell id="jtiA2OvrKeA1y7BBMs1h-25" value="" style="whiteSpace=wrap;html=1;aspect=fixed;fillColor=#EA6B66;" parent="1" vertex="1">
          <mxGeometry x="360" y="440" width="80" height="80" as="geometry" />
        </mxCell>
        <mxCell id="jtiA2OvrKeA1y7BBMs1h-26" value="" style="whiteSpace=wrap;html=1;aspect=fixed;fillColor=#EA6B66;" parent="1" vertex="1">
          <mxGeometry x="440" y="440" width="80" height="80" as="geometry" />
        </mxCell>
        <mxCell id="jtiA2OvrKeA1y7BBMs1h-27" value="" style="whiteSpace=wrap;html=1;aspect=fixed;fillColor=#EA6B66;" parent="1" vertex="1">
          <mxGeometry x="520" y="440" width="80" height="80" as="geometry" />
        </mxCell>
        <mxCell id="jtiA2OvrKeA1y7BBMs1h-28" value="" style="whiteSpace=wrap;html=1;aspect=fixed;fillColor=#EA6B66;" parent="1" vertex="1">
          <mxGeometry x="600" y="440" width="80" height="80" as="geometry" />
        </mxCell>
        <mxCell id="jtiA2OvrKeA1y7BBMs1h-29" value="" style="whiteSpace=wrap;html=1;aspect=fixed;fillColor=#FAE637;" parent="1" vertex="1">
          <mxGeometry x="680" y="440" width="80" height="80" as="geometry" />
        </mxCell>
        <mxCell id="jtiA2OvrKeA1y7BBMs1h-30" value="" style="whiteSpace=wrap;html=1;aspect=fixed;fillColor=#EA6B66;" parent="1" vertex="1">
          <mxGeometry x="360" y="520" width="80" height="80" as="geometry" />
        </mxCell>
        <mxCell id="jtiA2OvrKeA1y7BBMs1h-31" value="" style="whiteSpace=wrap;html=1;aspect=fixed;fillColor=#EA6B66;" parent="1" vertex="1">
          <mxGeometry x="440" y="520" width="80" height="80" as="geometry" />
        </mxCell>
        <mxCell id="jtiA2OvrKeA1y7BBMs1h-32" value="" style="whiteSpace=wrap;html=1;aspect=fixed;fillColor=#EA6B66;" parent="1" vertex="1">
          <mxGeometry x="520" y="520" width="80" height="80" as="geometry" />
        </mxCell>
        <mxCell id="jtiA2OvrKeA1y7BBMs1h-33" value="" style="whiteSpace=wrap;html=1;aspect=fixed;fillColor=#EA6B66;" parent="1" vertex="1">
          <mxGeometry x="600" y="520" width="80" height="80" as="geometry" />
        </mxCell>
        <mxCell id="jtiA2OvrKeA1y7BBMs1h-34" value="" style="whiteSpace=wrap;html=1;aspect=fixed;fillColor=#FAE637;" parent="1" vertex="1">
          <mxGeometry x="680" y="520" width="80" height="80" as="geometry" />
        </mxCell>
        <mxCell id="jtiA2OvrKeA1y7BBMs1h-36" value="" style="whiteSpace=wrap;html=1;aspect=fixed;fillColor=#999999;" parent="1" vertex="1">
          <mxGeometry x="440" y="200" width="80" height="80" as="geometry" />
        </mxCell>
        <mxCell id="jtiA2OvrKeA1y7BBMs1h-37" value="" style="whiteSpace=wrap;html=1;aspect=fixed;fillColor=#999999;" parent="1" vertex="1">
          <mxGeometry x="520" y="200" width="80" height="80" as="geometry" />
        </mxCell>
        <mxCell id="jtiA2OvrKeA1y7BBMs1h-38" value="" style="whiteSpace=wrap;html=1;aspect=fixed;fillColor=#999999;" parent="1" vertex="1">
          <mxGeometry x="600" y="200" width="80" height="80" as="geometry" />
        </mxCell>
        <mxCell id="jtiA2OvrKeA1y7BBMs1h-39" value="" style="whiteSpace=wrap;html=1;aspect=fixed;fillColor=#999999;" parent="1" vertex="1">
          <mxGeometry x="680" y="200" width="80" height="80" as="geometry" />
        </mxCell>
        <mxCell id="jtiA2OvrKeA1y7BBMs1h-40" value="" style="whiteSpace=wrap;html=1;aspect=fixed;strokeColor=#000000;fillColor=#EA6B66;" parent="1" vertex="1">
          <mxGeometry x="360" y="280" width="80" height="80" as="geometry" />
        </mxCell>
        <mxCell id="jtiA2OvrKeA1y7BBMs1h-41" value="" style="whiteSpace=wrap;html=1;aspect=fixed;strokeColor=#000000;fillColor=#EA6B66;" parent="1" vertex="1">
          <mxGeometry x="440" y="280" width="80" height="80" as="geometry" />
        </mxCell>
        <mxCell id="jtiA2OvrKeA1y7BBMs1h-42" value="" style="whiteSpace=wrap;html=1;aspect=fixed;strokeColor=#000000;fillColor=#EA6B66;" parent="1" vertex="1">
          <mxGeometry x="520" y="280" width="80" height="80" as="geometry" />
        </mxCell>
        <mxCell id="jtiA2OvrKeA1y7BBMs1h-43" value="" style="whiteSpace=wrap;html=1;aspect=fixed;fillColor=#999999;" parent="1" vertex="1">
          <mxGeometry x="600" y="280" width="80" height="80" as="geometry" />
        </mxCell>
        <mxCell id="jtiA2OvrKeA1y7BBMs1h-44" value="" style="whiteSpace=wrap;html=1;aspect=fixed;fillColor=#999999;" parent="1" vertex="1">
          <mxGeometry x="680" y="280" width="80" height="80" as="geometry" />
        </mxCell>
        <mxCell id="jtiA2OvrKeA1y7BBMs1h-45" value="" style="whiteSpace=wrap;html=1;aspect=fixed;fillColor=#EA6B66;" parent="1" vertex="1">
          <mxGeometry x="-40" y="360" width="80" height="80" as="geometry" />
        </mxCell>
        <mxCell id="jtiA2OvrKeA1y7BBMs1h-46" value="" style="whiteSpace=wrap;html=1;aspect=fixed;fillColor=#EA6B66;" parent="1" vertex="1">
          <mxGeometry x="40" y="360" width="80" height="80" as="geometry" />
        </mxCell>
        <mxCell id="jtiA2OvrKeA1y7BBMs1h-47" value="" style="whiteSpace=wrap;html=1;aspect=fixed;fillColor=#EA6B66;" parent="1" vertex="1">
          <mxGeometry x="120" y="360" width="80" height="80" as="geometry" />
        </mxCell>
        <mxCell id="jtiA2OvrKeA1y7BBMs1h-48" value="" style="whiteSpace=wrap;html=1;aspect=fixed;fillColor=#EA6B66;" parent="1" vertex="1">
          <mxGeometry x="200" y="360" width="80" height="80" as="geometry" />
        </mxCell>
        <mxCell id="jtiA2OvrKeA1y7BBMs1h-49" value="" style="whiteSpace=wrap;html=1;aspect=fixed;fillColor=#EA6B66;" parent="1" vertex="1">
          <mxGeometry x="280" y="360" width="80" height="80" as="geometry" />
        </mxCell>
        <mxCell id="jtiA2OvrKeA1y7BBMs1h-50" value="" style="whiteSpace=wrap;html=1;aspect=fixed;fillColor=#EA6B66;" parent="1" vertex="1">
          <mxGeometry x="-40" y="440" width="80" height="80" as="geometry" />
        </mxCell>
        <mxCell id="jtiA2OvrKeA1y7BBMs1h-51" value="" style="whiteSpace=wrap;html=1;aspect=fixed;fillColor=#EA6B66;" parent="1" vertex="1">
          <mxGeometry x="40" y="440" width="80" height="80" as="geometry" />
        </mxCell>
        <mxCell id="jtiA2OvrKeA1y7BBMs1h-52" value="" style="whiteSpace=wrap;html=1;aspect=fixed;fillColor=#EA6B66;" parent="1" vertex="1">
          <mxGeometry x="120" y="440" width="80" height="80" as="geometry" />
        </mxCell>
        <mxCell id="jtiA2OvrKeA1y7BBMs1h-53" value="" style="whiteSpace=wrap;html=1;aspect=fixed;fillColor=#EA6B66;" parent="1" vertex="1">
          <mxGeometry x="200" y="440" width="80" height="80" as="geometry" />
        </mxCell>
        <mxCell id="jtiA2OvrKeA1y7BBMs1h-54" value="" style="whiteSpace=wrap;html=1;aspect=fixed;fillColor=#EA6B66;" parent="1" vertex="1">
          <mxGeometry x="280" y="440" width="80" height="80" as="geometry" />
        </mxCell>
        <mxCell id="jtiA2OvrKeA1y7BBMs1h-55" value="" style="whiteSpace=wrap;html=1;aspect=fixed;fillColor=#EA6B66;" parent="1" vertex="1">
          <mxGeometry x="-40" y="520" width="80" height="80" as="geometry" />
        </mxCell>
        <mxCell id="jtiA2OvrKeA1y7BBMs1h-56" value="" style="whiteSpace=wrap;html=1;aspect=fixed;fillColor=#EA6B66;" parent="1" vertex="1">
          <mxGeometry x="40" y="520" width="80" height="80" as="geometry" />
        </mxCell>
        <mxCell id="jtiA2OvrKeA1y7BBMs1h-57" value="" style="whiteSpace=wrap;html=1;aspect=fixed;fillColor=#EA6B66;" parent="1" vertex="1">
          <mxGeometry x="120" y="520" width="80" height="80" as="geometry" />
        </mxCell>
        <mxCell id="jtiA2OvrKeA1y7BBMs1h-58" value="" style="whiteSpace=wrap;html=1;aspect=fixed;fillColor=#EA6B66;" parent="1" vertex="1">
          <mxGeometry x="200" y="520" width="80" height="80" as="geometry" />
        </mxCell>
        <mxCell id="jtiA2OvrKeA1y7BBMs1h-59" value="" style="whiteSpace=wrap;html=1;aspect=fixed;fillColor=#EA6B66;" parent="1" vertex="1">
          <mxGeometry x="280" y="520" width="80" height="80" as="geometry" />
        </mxCell>
        <mxCell id="jtiA2OvrKeA1y7BBMs1h-60" value="" style="whiteSpace=wrap;html=1;aspect=fixed;fillColor=#EA6B66;" parent="1" vertex="1">
          <mxGeometry x="-40" y="200" width="80" height="80" as="geometry" />
        </mxCell>
        <mxCell id="jtiA2OvrKeA1y7BBMs1h-61" value="" style="whiteSpace=wrap;html=1;aspect=fixed;fillColor=#EA6B66;" parent="1" vertex="1">
          <mxGeometry x="40" y="200" width="80" height="80" as="geometry" />
        </mxCell>
        <mxCell id="jtiA2OvrKeA1y7BBMs1h-62" value="" style="whiteSpace=wrap;html=1;aspect=fixed;fillColor=#EA6B66;" parent="1" vertex="1">
          <mxGeometry x="120" y="200" width="80" height="80" as="geometry" />
        </mxCell>
        <mxCell id="jtiA2OvrKeA1y7BBMs1h-63" value="" style="whiteSpace=wrap;html=1;aspect=fixed;strokeColor=#000000;fillColor=#EA6B66;" parent="1" vertex="1">
          <mxGeometry x="200" y="200" width="80" height="80" as="geometry" />
        </mxCell>
        <mxCell id="jtiA2OvrKeA1y7BBMs1h-64" value="" style="whiteSpace=wrap;html=1;aspect=fixed;strokeColor=#000000;fillColor=#EA6B66;" parent="1" vertex="1">
          <mxGeometry x="280" y="200" width="80" height="80" as="geometry" />
        </mxCell>
        <mxCell id="jtiA2OvrKeA1y7BBMs1h-65" value="" style="whiteSpace=wrap;html=1;aspect=fixed;fillColor=#EA6B66;" parent="1" vertex="1">
          <mxGeometry x="-40" y="280" width="80" height="80" as="geometry" />
        </mxCell>
        <mxCell id="jtiA2OvrKeA1y7BBMs1h-66" value="" style="whiteSpace=wrap;html=1;aspect=fixed;fillColor=#EA6B66;" parent="1" vertex="1">
          <mxGeometry x="40" y="280" width="80" height="80" as="geometry" />
        </mxCell>
        <mxCell id="jtiA2OvrKeA1y7BBMs1h-67" value="" style="whiteSpace=wrap;html=1;aspect=fixed;fillColor=#EA6B66;" parent="1" vertex="1">
          <mxGeometry x="120" y="280" width="80" height="80" as="geometry" />
        </mxCell>
        <mxCell id="jtiA2OvrKeA1y7BBMs1h-68" value="" style="whiteSpace=wrap;html=1;aspect=fixed;strokeColor=#000000;fillColor=#EA6B66;" parent="1" vertex="1">
          <mxGeometry x="200" y="280" width="80" height="80" as="geometry" />
        </mxCell>
        <mxCell id="jtiA2OvrKeA1y7BBMs1h-69" value="" style="whiteSpace=wrap;html=1;aspect=fixed;strokeColor=#000000;fillColor=#EA6B66;" parent="1" vertex="1">
          <mxGeometry x="280" y="280" width="80" height="80" as="geometry" />
        </mxCell>
        <mxCell id="jtiA2OvrKeA1y7BBMs1h-70" value="" style="whiteSpace=wrap;html=1;aspect=fixed;fillColor=#999999;" parent="1" vertex="1">
          <mxGeometry x="360" y="-40" width="80" height="80" as="geometry" />
        </mxCell>
        <mxCell id="jtiA2OvrKeA1y7BBMs1h-71" value="" style="whiteSpace=wrap;html=1;aspect=fixed;fillColor=#999999;" parent="1" vertex="1">
          <mxGeometry x="440" y="-40" width="80" height="80" as="geometry" />
        </mxCell>
        <mxCell id="jtiA2OvrKeA1y7BBMs1h-72" value="" style="whiteSpace=wrap;html=1;aspect=fixed;fillColor=#999999;" parent="1" vertex="1">
          <mxGeometry x="520" y="-40" width="80" height="80" as="geometry" />
        </mxCell>
        <mxCell id="jtiA2OvrKeA1y7BBMs1h-73" value="" style="whiteSpace=wrap;html=1;aspect=fixed;fillColor=#999999;" parent="1" vertex="1">
          <mxGeometry x="600" y="-40" width="80" height="80" as="geometry" />
        </mxCell>
        <mxCell id="jtiA2OvrKeA1y7BBMs1h-74" value="" style="whiteSpace=wrap;html=1;aspect=fixed;fillColor=#999999;" parent="1" vertex="1">
          <mxGeometry x="680" y="-40" width="80" height="80" as="geometry" />
        </mxCell>
        <mxCell id="jtiA2OvrKeA1y7BBMs1h-75" value="" style="whiteSpace=wrap;html=1;aspect=fixed;fillColor=#999999;" parent="1" vertex="1">
          <mxGeometry x="360" y="40" width="80" height="80" as="geometry" />
        </mxCell>
        <mxCell id="jtiA2OvrKeA1y7BBMs1h-76" value="" style="whiteSpace=wrap;html=1;aspect=fixed;fillColor=#999999;" parent="1" vertex="1">
          <mxGeometry x="440" y="40" width="80" height="80" as="geometry" />
        </mxCell>
        <mxCell id="jtiA2OvrKeA1y7BBMs1h-77" value="" style="whiteSpace=wrap;html=1;aspect=fixed;fillColor=#999999;" parent="1" vertex="1">
          <mxGeometry x="520" y="40" width="80" height="80" as="geometry" />
        </mxCell>
        <mxCell id="jtiA2OvrKeA1y7BBMs1h-78" value="" style="whiteSpace=wrap;html=1;aspect=fixed;fillColor=#999999;" parent="1" vertex="1">
          <mxGeometry x="600" y="40" width="80" height="80" as="geometry" />
        </mxCell>
        <mxCell id="jtiA2OvrKeA1y7BBMs1h-79" value="" style="whiteSpace=wrap;html=1;aspect=fixed;fillColor=#999999;" parent="1" vertex="1">
          <mxGeometry x="680" y="40" width="80" height="80" as="geometry" />
        </mxCell>
        <mxCell id="jtiA2OvrKeA1y7BBMs1h-80" value="" style="whiteSpace=wrap;html=1;aspect=fixed;fillColor=#999999;" parent="1" vertex="1">
          <mxGeometry x="360" y="120" width="80" height="80" as="geometry" />
        </mxCell>
        <mxCell id="jtiA2OvrKeA1y7BBMs1h-81" value="" style="whiteSpace=wrap;html=1;aspect=fixed;fillColor=#999999;" parent="1" vertex="1">
          <mxGeometry x="440" y="120" width="80" height="80" as="geometry" />
        </mxCell>
        <mxCell id="jtiA2OvrKeA1y7BBMs1h-82" value="" style="whiteSpace=wrap;html=1;aspect=fixed;fillColor=#999999;" parent="1" vertex="1">
          <mxGeometry x="520" y="120" width="80" height="80" as="geometry" />
        </mxCell>
        <mxCell id="jtiA2OvrKeA1y7BBMs1h-83" value="" style="whiteSpace=wrap;html=1;aspect=fixed;fillColor=#999999;" parent="1" vertex="1">
          <mxGeometry x="600" y="120" width="80" height="80" as="geometry" />
        </mxCell>
        <mxCell id="jtiA2OvrKeA1y7BBMs1h-84" value="" style="whiteSpace=wrap;html=1;aspect=fixed;fillColor=#999999;" parent="1" vertex="1">
          <mxGeometry x="680" y="120" width="80" height="80" as="geometry" />
        </mxCell>
        <mxCell id="jtiA2OvrKeA1y7BBMs1h-85" value="" style="whiteSpace=wrap;html=1;aspect=fixed;fillColor=#999999;" parent="1" vertex="1">
          <mxGeometry x="360" y="-200" width="80" height="80" as="geometry" />
        </mxCell>
        <mxCell id="jtiA2OvrKeA1y7BBMs1h-86" value="" style="whiteSpace=wrap;html=1;aspect=fixed;fillColor=#999999;" parent="1" vertex="1">
          <mxGeometry x="440" y="-200" width="80" height="80" as="geometry" />
        </mxCell>
        <mxCell id="jtiA2OvrKeA1y7BBMs1h-87" value="" style="whiteSpace=wrap;html=1;aspect=fixed;fillColor=#999999;" parent="1" vertex="1">
          <mxGeometry x="520" y="-200" width="80" height="80" as="geometry" />
        </mxCell>
        <mxCell id="jtiA2OvrKeA1y7BBMs1h-88" value="" style="whiteSpace=wrap;html=1;aspect=fixed;fillColor=#999999;" parent="1" vertex="1">
          <mxGeometry x="600" y="-200" width="80" height="80" as="geometry" />
        </mxCell>
        <mxCell id="jtiA2OvrKeA1y7BBMs1h-89" value="" style="whiteSpace=wrap;html=1;aspect=fixed;fillColor=#999999;" parent="1" vertex="1">
          <mxGeometry x="680" y="-200" width="80" height="80" as="geometry" />
        </mxCell>
        <mxCell id="jtiA2OvrKeA1y7BBMs1h-90" value="" style="whiteSpace=wrap;html=1;aspect=fixed;fillColor=#999999;" parent="1" vertex="1">
          <mxGeometry x="360" y="-120" width="80" height="80" as="geometry" />
        </mxCell>
        <mxCell id="jtiA2OvrKeA1y7BBMs1h-91" value="" style="whiteSpace=wrap;html=1;aspect=fixed;fillColor=#999999;" parent="1" vertex="1">
          <mxGeometry x="440" y="-120" width="80" height="80" as="geometry" />
        </mxCell>
        <mxCell id="jtiA2OvrKeA1y7BBMs1h-92" value="" style="whiteSpace=wrap;html=1;aspect=fixed;fillColor=#999999;" parent="1" vertex="1">
          <mxGeometry x="520" y="-120" width="80" height="80" as="geometry" />
        </mxCell>
        <mxCell id="jtiA2OvrKeA1y7BBMs1h-93" value="" style="whiteSpace=wrap;html=1;aspect=fixed;fillColor=#999999;" parent="1" vertex="1">
          <mxGeometry x="600" y="-120" width="80" height="80" as="geometry" />
        </mxCell>
        <mxCell id="jtiA2OvrKeA1y7BBMs1h-94" value="" style="whiteSpace=wrap;html=1;aspect=fixed;fillColor=#999999;" parent="1" vertex="1">
          <mxGeometry x="680" y="-120" width="80" height="80" as="geometry" />
        </mxCell>
        <mxCell id="jtiA2OvrKeA1y7BBMs1h-95" value="" style="whiteSpace=wrap;html=1;aspect=fixed;fillColor=#999999;" parent="1" vertex="1">
          <mxGeometry x="-40" y="-40" width="80" height="80" as="geometry" />
        </mxCell>
        <mxCell id="jtiA2OvrKeA1y7BBMs1h-96" value="" style="whiteSpace=wrap;html=1;aspect=fixed;fillColor=#999999;" parent="1" vertex="1">
          <mxGeometry x="40" y="-40" width="80" height="80" as="geometry" />
        </mxCell>
        <mxCell id="jtiA2OvrKeA1y7BBMs1h-97" value="" style="whiteSpace=wrap;html=1;aspect=fixed;fillColor=#999999;" parent="1" vertex="1">
          <mxGeometry x="120" y="-40" width="80" height="80" as="geometry" />
        </mxCell>
        <mxCell id="jtiA2OvrKeA1y7BBMs1h-98" value="" style="whiteSpace=wrap;html=1;aspect=fixed;strokeColor=#000000;fillColor=#999999;" parent="1" vertex="1">
          <mxGeometry x="200" y="-40" width="80" height="80" as="geometry" />
        </mxCell>
        <mxCell id="jtiA2OvrKeA1y7BBMs1h-99" value="" style="whiteSpace=wrap;html=1;aspect=fixed;strokeColor=#000000;fillColor=#999999;" parent="1" vertex="1">
          <mxGeometry x="280" y="-40" width="80" height="80" as="geometry" />
        </mxCell>
        <mxCell id="jtiA2OvrKeA1y7BBMs1h-100" value="" style="whiteSpace=wrap;html=1;aspect=fixed;fillColor=#999999;" parent="1" vertex="1">
          <mxGeometry x="-40" y="40" width="80" height="80" as="geometry" />
        </mxCell>
        <mxCell id="jtiA2OvrKeA1y7BBMs1h-101" value="" style="whiteSpace=wrap;html=1;aspect=fixed;fillColor=#999999;" parent="1" vertex="1">
          <mxGeometry x="40" y="40" width="80" height="80" as="geometry" />
        </mxCell>
        <mxCell id="jtiA2OvrKeA1y7BBMs1h-102" value="" style="whiteSpace=wrap;html=1;aspect=fixed;fillColor=#999999;" parent="1" vertex="1">
          <mxGeometry x="120" y="40" width="80" height="80" as="geometry" />
        </mxCell>
        <mxCell id="jtiA2OvrKeA1y7BBMs1h-103" value="" style="whiteSpace=wrap;html=1;aspect=fixed;strokeColor=#000000;fillColor=#999999;" parent="1" vertex="1">
          <mxGeometry x="200" y="40" width="80" height="80" as="geometry" />
        </mxCell>
        <mxCell id="jtiA2OvrKeA1y7BBMs1h-104" value="" style="whiteSpace=wrap;html=1;aspect=fixed;strokeColor=#000000;fillColor=#999999;" parent="1" vertex="1">
          <mxGeometry x="280" y="40" width="80" height="80" as="geometry" />
        </mxCell>
        <mxCell id="jtiA2OvrKeA1y7BBMs1h-105" value="" style="whiteSpace=wrap;html=1;aspect=fixed;fillColor=#EA6B66;" parent="1" vertex="1">
          <mxGeometry x="-40" y="120" width="80" height="80" as="geometry" />
        </mxCell>
        <mxCell id="jtiA2OvrKeA1y7BBMs1h-106" value="" style="whiteSpace=wrap;html=1;aspect=fixed;fillColor=#999999;" parent="1" vertex="1">
          <mxGeometry x="40" y="120" width="80" height="80" as="geometry" />
        </mxCell>
        <mxCell id="jtiA2OvrKeA1y7BBMs1h-107" value="" style="whiteSpace=wrap;html=1;aspect=fixed;fillColor=#999999;" parent="1" vertex="1">
          <mxGeometry x="120" y="120" width="80" height="80" as="geometry" />
        </mxCell>
        <mxCell id="jtiA2OvrKeA1y7BBMs1h-108" value="" style="whiteSpace=wrap;html=1;aspect=fixed;strokeColor=#000000;fillColor=#999999;" parent="1" vertex="1">
          <mxGeometry x="200" y="120" width="80" height="80" as="geometry" />
        </mxCell>
        <mxCell id="jtiA2OvrKeA1y7BBMs1h-109" value="" style="whiteSpace=wrap;html=1;aspect=fixed;strokeColor=#000000;fillColor=#999999;" parent="1" vertex="1">
          <mxGeometry x="280" y="120" width="80" height="80" as="geometry" />
        </mxCell>
        <mxCell id="jtiA2OvrKeA1y7BBMs1h-110" value="" style="whiteSpace=wrap;html=1;aspect=fixed;fillColor=#999999;" parent="1" vertex="1">
          <mxGeometry x="-40" y="-200" width="80" height="80" as="geometry" />
        </mxCell>
        <mxCell id="jtiA2OvrKeA1y7BBMs1h-111" value="" style="whiteSpace=wrap;html=1;aspect=fixed;fillColor=#999999;" parent="1" vertex="1">
          <mxGeometry x="40" y="-200" width="80" height="80" as="geometry" />
        </mxCell>
        <mxCell id="jtiA2OvrKeA1y7BBMs1h-112" value="" style="whiteSpace=wrap;html=1;aspect=fixed;fillColor=#999999;" parent="1" vertex="1">
          <mxGeometry x="120" y="-200" width="80" height="80" as="geometry" />
        </mxCell>
        <mxCell id="jtiA2OvrKeA1y7BBMs1h-113" value="" style="whiteSpace=wrap;html=1;aspect=fixed;fillColor=#999999;" parent="1" vertex="1">
          <mxGeometry x="200" y="-200" width="80" height="80" as="geometry" />
        </mxCell>
        <mxCell id="jtiA2OvrKeA1y7BBMs1h-114" value="" style="whiteSpace=wrap;html=1;aspect=fixed;strokeColor=#000000;fillColor=#999999;" parent="1" vertex="1">
          <mxGeometry x="280" y="-200" width="80" height="80" as="geometry" />
        </mxCell>
        <mxCell id="jtiA2OvrKeA1y7BBMs1h-115" value="" style="whiteSpace=wrap;html=1;aspect=fixed;fillColor=#999999;" parent="1" vertex="1">
          <mxGeometry x="-40" y="-120" width="80" height="80" as="geometry" />
        </mxCell>
        <mxCell id="jtiA2OvrKeA1y7BBMs1h-116" value="" style="whiteSpace=wrap;html=1;aspect=fixed;fillColor=#999999;" parent="1" vertex="1">
          <mxGeometry x="40" y="-120" width="80" height="80" as="geometry" />
        </mxCell>
        <mxCell id="jtiA2OvrKeA1y7BBMs1h-117" value="" style="whiteSpace=wrap;html=1;aspect=fixed;fillColor=#999999;" parent="1" vertex="1">
          <mxGeometry x="120" y="-120" width="80" height="80" as="geometry" />
        </mxCell>
        <mxCell id="jtiA2OvrKeA1y7BBMs1h-118" value="" style="whiteSpace=wrap;html=1;aspect=fixed;strokeColor=#000000;fillColor=#999999;" parent="1" vertex="1">
          <mxGeometry x="200" y="-120" width="80" height="80" as="geometry" />
        </mxCell>
        <mxCell id="jtiA2OvrKeA1y7BBMs1h-119" value="" style="whiteSpace=wrap;html=1;aspect=fixed;strokeColor=#000000;fillColor=#999999;" parent="1" vertex="1">
          <mxGeometry x="280" y="-120" width="80" height="80" as="geometry" />
        </mxCell>
        <mxCell id="jtiA2OvrKeA1y7BBMs1h-122" value="" style="whiteSpace=wrap;html=1;aspect=fixed;fillColor=#EA6B66;" parent="1" vertex="1">
          <mxGeometry x="360" y="600" width="80" height="80" as="geometry" />
        </mxCell>
        <mxCell id="jtiA2OvrKeA1y7BBMs1h-123" value="" style="whiteSpace=wrap;html=1;aspect=fixed;fillColor=#EA6B66;" parent="1" vertex="1">
          <mxGeometry x="440" y="600" width="80" height="80" as="geometry" />
        </mxCell>
        <mxCell id="jtiA2OvrKeA1y7BBMs1h-124" value="" style="whiteSpace=wrap;html=1;aspect=fixed;fillColor=#EA6B66;" parent="1" vertex="1">
          <mxGeometry x="520" y="600" width="80" height="80" as="geometry" />
        </mxCell>
        <mxCell id="jtiA2OvrKeA1y7BBMs1h-125" value="" style="whiteSpace=wrap;html=1;aspect=fixed;fillColor=#EA6B66;" parent="1" vertex="1">
          <mxGeometry x="600" y="600" width="80" height="80" as="geometry" />
        </mxCell>
        <mxCell id="jtiA2OvrKeA1y7BBMs1h-126" value="" style="whiteSpace=wrap;html=1;aspect=fixed;fillColor=#FAE637;" parent="1" vertex="1">
          <mxGeometry x="680" y="600" width="80" height="80" as="geometry" />
        </mxCell>
        <mxCell id="jtiA2OvrKeA1y7BBMs1h-127" value="" style="whiteSpace=wrap;html=1;aspect=fixed;fillColor=#EA6B66;" parent="1" vertex="1">
          <mxGeometry x="-40" y="600" width="80" height="80" as="geometry" />
        </mxCell>
        <mxCell id="jtiA2OvrKeA1y7BBMs1h-128" value="" style="whiteSpace=wrap;html=1;aspect=fixed;fillColor=#EA6B66;" parent="1" vertex="1">
          <mxGeometry x="40" y="600" width="80" height="80" as="geometry" />
        </mxCell>
        <mxCell id="jtiA2OvrKeA1y7BBMs1h-129" value="" style="whiteSpace=wrap;html=1;aspect=fixed;fillColor=#EA6B66;" parent="1" vertex="1">
          <mxGeometry x="120" y="600" width="80" height="80" as="geometry" />
        </mxCell>
        <mxCell id="jtiA2OvrKeA1y7BBMs1h-130" value="" style="whiteSpace=wrap;html=1;aspect=fixed;fillColor=#EA6B66;" parent="1" vertex="1">
          <mxGeometry x="200" y="600" width="80" height="80" as="geometry" />
        </mxCell>
        <mxCell id="jtiA2OvrKeA1y7BBMs1h-131" value="" style="whiteSpace=wrap;html=1;aspect=fixed;fillColor=#EA6B66;" parent="1" vertex="1">
          <mxGeometry x="280" y="600" width="80" height="80" as="geometry" />
        </mxCell>
        <mxCell id="jtiA2OvrKeA1y7BBMs1h-132" value="" style="whiteSpace=wrap;html=1;aspect=fixed;fillColor=#FAE637;" parent="1" vertex="1">
          <mxGeometry x="760" y="360" width="80" height="80" as="geometry" />
        </mxCell>
        <mxCell id="jtiA2OvrKeA1y7BBMs1h-133" value="" style="whiteSpace=wrap;html=1;aspect=fixed;fillColor=#FAE637;" parent="1" vertex="1">
          <mxGeometry x="760" y="440" width="80" height="80" as="geometry" />
        </mxCell>
        <mxCell id="jtiA2OvrKeA1y7BBMs1h-134" value="" style="whiteSpace=wrap;html=1;aspect=fixed;fillColor=#FAE637;" parent="1" vertex="1">
          <mxGeometry x="760" y="520" width="80" height="80" as="geometry" />
        </mxCell>
        <mxCell id="jtiA2OvrKeA1y7BBMs1h-135" value="" style="whiteSpace=wrap;html=1;aspect=fixed;fillColor=#999999;" parent="1" vertex="1">
          <mxGeometry x="760" y="200" width="80" height="80" as="geometry" />
        </mxCell>
        <mxCell id="jtiA2OvrKeA1y7BBMs1h-136" value="" style="whiteSpace=wrap;html=1;aspect=fixed;fillColor=#FAE637;" parent="1" vertex="1">
          <mxGeometry x="760" y="280" width="80" height="80" as="geometry" />
        </mxCell>
        <mxCell id="jtiA2OvrKeA1y7BBMs1h-137" value="" style="whiteSpace=wrap;html=1;aspect=fixed;fillColor=#999999;" parent="1" vertex="1">
          <mxGeometry x="760" y="-40" width="80" height="80" as="geometry" />
        </mxCell>
        <mxCell id="jtiA2OvrKeA1y7BBMs1h-138" value="" style="whiteSpace=wrap;html=1;aspect=fixed;fillColor=#999999;" parent="1" vertex="1">
          <mxGeometry x="760" y="40" width="80" height="80" as="geometry" />
        </mxCell>
        <mxCell id="jtiA2OvrKeA1y7BBMs1h-139" value="" style="whiteSpace=wrap;html=1;aspect=fixed;fillColor=#999999;" parent="1" vertex="1">
          <mxGeometry x="760" y="120" width="80" height="80" as="geometry" />
        </mxCell>
        <mxCell id="jtiA2OvrKeA1y7BBMs1h-140" value="" style="whiteSpace=wrap;html=1;aspect=fixed;fillColor=#999999;" parent="1" vertex="1">
          <mxGeometry x="760" y="-200" width="80" height="80" as="geometry" />
        </mxCell>
        <mxCell id="jtiA2OvrKeA1y7BBMs1h-141" value="" style="whiteSpace=wrap;html=1;aspect=fixed;fillColor=#999999;" parent="1" vertex="1">
          <mxGeometry x="760" y="-120" width="80" height="80" as="geometry" />
        </mxCell>
        <mxCell id="jtiA2OvrKeA1y7BBMs1h-142" value="" style="whiteSpace=wrap;html=1;aspect=fixed;fillColor=#FAE637;" parent="1" vertex="1">
          <mxGeometry x="760" y="600" width="80" height="80" as="geometry" />
        </mxCell>
        <mxCell id="jtiA2OvrKeA1y7BBMs1h-143" value="" style="whiteSpace=wrap;html=1;aspect=fixed;fillColor=none;strokeWidth=11;" parent="1" vertex="1">
          <mxGeometry x="120" y="-40" width="560" height="560" as="geometry" />
        </mxCell>
        <mxCell id="jtiA2OvrKeA1y7BBMs1h-35" value="" style="whiteSpace=wrap;html=1;aspect=fixed;fillColor=#999999;strokeColor=#CC0000;fontColor=#333333;strokeWidth=13;" parent="1" vertex="1">
          <mxGeometry x="360" y="200" width="80" height="80" as="geometry" />
        </mxCell>
        <mxCell id="jtiA2OvrKeA1y7BBMs1h-267" value="" style="whiteSpace=wrap;html=1;aspect=fixed;fillColor=#EA6B66;" parent="1" vertex="1">
          <mxGeometry x="1680" y="360" width="80" height="80" as="geometry" />
        </mxCell>
        <mxCell id="jtiA2OvrKeA1y7BBMs1h-268" value="" style="whiteSpace=wrap;html=1;aspect=fixed;fillColor=#EA6B66;" parent="1" vertex="1">
          <mxGeometry x="1760" y="360" width="80" height="80" as="geometry" />
        </mxCell>
        <mxCell id="jtiA2OvrKeA1y7BBMs1h-269" value="" style="whiteSpace=wrap;html=1;aspect=fixed;fillColor=#EA6B66;" parent="1" vertex="1">
          <mxGeometry x="1840" y="360" width="80" height="80" as="geometry" />
        </mxCell>
        <mxCell id="jtiA2OvrKeA1y7BBMs1h-270" value="" style="whiteSpace=wrap;html=1;aspect=fixed;fillColor=#EA6B66;" parent="1" vertex="1">
          <mxGeometry x="1920" y="360" width="80" height="80" as="geometry" />
        </mxCell>
        <mxCell id="jtiA2OvrKeA1y7BBMs1h-271" value="" style="whiteSpace=wrap;html=1;aspect=fixed;fillColor=#FAE637;" parent="1" vertex="1">
          <mxGeometry x="2000" y="360" width="80" height="80" as="geometry" />
        </mxCell>
        <mxCell id="jtiA2OvrKeA1y7BBMs1h-272" value="" style="whiteSpace=wrap;html=1;aspect=fixed;fillColor=#EA6B66;" parent="1" vertex="1">
          <mxGeometry x="1680" y="440" width="80" height="80" as="geometry" />
        </mxCell>
        <mxCell id="jtiA2OvrKeA1y7BBMs1h-273" value="" style="whiteSpace=wrap;html=1;aspect=fixed;fillColor=#EA6B66;" parent="1" vertex="1">
          <mxGeometry x="1760" y="440" width="80" height="80" as="geometry" />
        </mxCell>
        <mxCell id="jtiA2OvrKeA1y7BBMs1h-274" value="" style="whiteSpace=wrap;html=1;aspect=fixed;fillColor=#EA6B66;" parent="1" vertex="1">
          <mxGeometry x="1840" y="440" width="80" height="80" as="geometry" />
        </mxCell>
        <mxCell id="jtiA2OvrKeA1y7BBMs1h-275" value="" style="whiteSpace=wrap;html=1;aspect=fixed;fillColor=#EA6B66;" parent="1" vertex="1">
          <mxGeometry x="1920" y="440" width="80" height="80" as="geometry" />
        </mxCell>
        <mxCell id="jtiA2OvrKeA1y7BBMs1h-276" value="" style="whiteSpace=wrap;html=1;aspect=fixed;fillColor=#FAE637;" parent="1" vertex="1">
          <mxGeometry x="2000" y="440" width="80" height="80" as="geometry" />
        </mxCell>
        <mxCell id="jtiA2OvrKeA1y7BBMs1h-277" value="" style="whiteSpace=wrap;html=1;aspect=fixed;fillColor=#EA6B66;" parent="1" vertex="1">
          <mxGeometry x="1680" y="520" width="80" height="80" as="geometry" />
        </mxCell>
        <mxCell id="jtiA2OvrKeA1y7BBMs1h-278" value="" style="whiteSpace=wrap;html=1;aspect=fixed;fillColor=#EA6B66;" parent="1" vertex="1">
          <mxGeometry x="1760" y="520" width="80" height="80" as="geometry" />
        </mxCell>
        <mxCell id="jtiA2OvrKeA1y7BBMs1h-279" value="" style="whiteSpace=wrap;html=1;aspect=fixed;fillColor=#EA6B66;" parent="1" vertex="1">
          <mxGeometry x="1840" y="520" width="80" height="80" as="geometry" />
        </mxCell>
        <mxCell id="jtiA2OvrKeA1y7BBMs1h-280" value="" style="whiteSpace=wrap;html=1;aspect=fixed;fillColor=#EA6B66;" parent="1" vertex="1">
          <mxGeometry x="1920" y="520" width="80" height="80" as="geometry" />
        </mxCell>
        <mxCell id="jtiA2OvrKeA1y7BBMs1h-281" value="" style="whiteSpace=wrap;html=1;aspect=fixed;fillColor=#FAE637;" parent="1" vertex="1">
          <mxGeometry x="2000" y="520" width="80" height="80" as="geometry" />
        </mxCell>
        <mxCell id="jtiA2OvrKeA1y7BBMs1h-282" value="" style="whiteSpace=wrap;html=1;aspect=fixed;fillColor=#999999;" parent="1" vertex="1">
          <mxGeometry x="1760" y="200" width="80" height="80" as="geometry" />
        </mxCell>
        <mxCell id="jtiA2OvrKeA1y7BBMs1h-283" value="" style="whiteSpace=wrap;html=1;aspect=fixed;fillColor=#999999;" parent="1" vertex="1">
          <mxGeometry x="1840" y="200" width="80" height="80" as="geometry" />
        </mxCell>
        <mxCell id="jtiA2OvrKeA1y7BBMs1h-284" value="" style="whiteSpace=wrap;html=1;aspect=fixed;fillColor=#999999;" parent="1" vertex="1">
          <mxGeometry x="1920" y="200" width="80" height="80" as="geometry" />
        </mxCell>
        <mxCell id="jtiA2OvrKeA1y7BBMs1h-285" value="" style="whiteSpace=wrap;html=1;aspect=fixed;fillColor=#999999;" parent="1" vertex="1">
          <mxGeometry x="2000" y="200" width="80" height="80" as="geometry" />
        </mxCell>
        <mxCell id="jtiA2OvrKeA1y7BBMs1h-286" value="" style="whiteSpace=wrap;html=1;aspect=fixed;strokeColor=#000000;fillColor=#EA6B66;" parent="1" vertex="1">
          <mxGeometry x="1680" y="280" width="80" height="80" as="geometry" />
        </mxCell>
        <mxCell id="jtiA2OvrKeA1y7BBMs1h-287" value="" style="whiteSpace=wrap;html=1;aspect=fixed;strokeColor=#000000;fillColor=#EA6B66;" parent="1" vertex="1">
          <mxGeometry x="1760" y="280" width="80" height="80" as="geometry" />
        </mxCell>
        <mxCell id="jtiA2OvrKeA1y7BBMs1h-288" value="" style="whiteSpace=wrap;html=1;aspect=fixed;strokeColor=#000000;fillColor=#EA6B66;" parent="1" vertex="1">
          <mxGeometry x="1840" y="280" width="80" height="80" as="geometry" />
        </mxCell>
        <mxCell id="jtiA2OvrKeA1y7BBMs1h-289" value="" style="whiteSpace=wrap;html=1;aspect=fixed;fillColor=#999999;" parent="1" vertex="1">
          <mxGeometry x="1920" y="280" width="80" height="80" as="geometry" />
        </mxCell>
        <mxCell id="jtiA2OvrKeA1y7BBMs1h-290" value="" style="whiteSpace=wrap;html=1;aspect=fixed;fillColor=#FAE637;" parent="1" vertex="1">
          <mxGeometry x="2000" y="280" width="80" height="80" as="geometry" />
        </mxCell>
        <mxCell id="jtiA2OvrKeA1y7BBMs1h-291" value="" style="whiteSpace=wrap;html=1;aspect=fixed;fillColor=#EA6B66;" parent="1" vertex="1">
          <mxGeometry x="1280" y="360" width="80" height="80" as="geometry" />
        </mxCell>
        <mxCell id="jtiA2OvrKeA1y7BBMs1h-292" value="" style="whiteSpace=wrap;html=1;aspect=fixed;fillColor=#EA6B66;" parent="1" vertex="1">
          <mxGeometry x="1360" y="360" width="80" height="80" as="geometry" />
        </mxCell>
        <mxCell id="jtiA2OvrKeA1y7BBMs1h-293" value="" style="whiteSpace=wrap;html=1;aspect=fixed;fillColor=#EA6B66;" parent="1" vertex="1">
          <mxGeometry x="1440" y="360" width="80" height="80" as="geometry" />
        </mxCell>
        <mxCell id="jtiA2OvrKeA1y7BBMs1h-294" value="" style="whiteSpace=wrap;html=1;aspect=fixed;fillColor=#EA6B66;" parent="1" vertex="1">
          <mxGeometry x="1520" y="360" width="80" height="80" as="geometry" />
        </mxCell>
        <mxCell id="jtiA2OvrKeA1y7BBMs1h-295" value="" style="whiteSpace=wrap;html=1;aspect=fixed;fillColor=#EA6B66;" parent="1" vertex="1">
          <mxGeometry x="1600" y="360" width="80" height="80" as="geometry" />
        </mxCell>
        <mxCell id="jtiA2OvrKeA1y7BBMs1h-296" value="" style="whiteSpace=wrap;html=1;aspect=fixed;fillColor=#EA6B66;" parent="1" vertex="1">
          <mxGeometry x="1280" y="440" width="80" height="80" as="geometry" />
        </mxCell>
        <mxCell id="jtiA2OvrKeA1y7BBMs1h-297" value="" style="whiteSpace=wrap;html=1;aspect=fixed;fillColor=#EA6B66;" parent="1" vertex="1">
          <mxGeometry x="1360" y="440" width="80" height="80" as="geometry" />
        </mxCell>
        <mxCell id="jtiA2OvrKeA1y7BBMs1h-298" value="" style="whiteSpace=wrap;html=1;aspect=fixed;fillColor=#EA6B66;" parent="1" vertex="1">
          <mxGeometry x="1440" y="440" width="80" height="80" as="geometry" />
        </mxCell>
        <mxCell id="jtiA2OvrKeA1y7BBMs1h-299" value="" style="whiteSpace=wrap;html=1;aspect=fixed;fillColor=#EA6B66;" parent="1" vertex="1">
          <mxGeometry x="1520" y="440" width="80" height="80" as="geometry" />
        </mxCell>
        <mxCell id="jtiA2OvrKeA1y7BBMs1h-300" value="" style="whiteSpace=wrap;html=1;aspect=fixed;fillColor=#EA6B66;" parent="1" vertex="1">
          <mxGeometry x="1600" y="440" width="80" height="80" as="geometry" />
        </mxCell>
        <mxCell id="jtiA2OvrKeA1y7BBMs1h-301" value="" style="whiteSpace=wrap;html=1;aspect=fixed;fillColor=#EA6B66;" parent="1" vertex="1">
          <mxGeometry x="1280" y="520" width="80" height="80" as="geometry" />
        </mxCell>
        <mxCell id="jtiA2OvrKeA1y7BBMs1h-302" value="" style="whiteSpace=wrap;html=1;aspect=fixed;fillColor=#EA6B66;" parent="1" vertex="1">
          <mxGeometry x="1360" y="520" width="80" height="80" as="geometry" />
        </mxCell>
        <mxCell id="jtiA2OvrKeA1y7BBMs1h-303" value="" style="whiteSpace=wrap;html=1;aspect=fixed;fillColor=#EA6B66;" parent="1" vertex="1">
          <mxGeometry x="1440" y="520" width="80" height="80" as="geometry" />
        </mxCell>
        <mxCell id="jtiA2OvrKeA1y7BBMs1h-304" value="" style="whiteSpace=wrap;html=1;aspect=fixed;fillColor=#EA6B66;" parent="1" vertex="1">
          <mxGeometry x="1520" y="520" width="80" height="80" as="geometry" />
        </mxCell>
        <mxCell id="jtiA2OvrKeA1y7BBMs1h-305" value="" style="whiteSpace=wrap;html=1;aspect=fixed;fillColor=#EA6B66;" parent="1" vertex="1">
          <mxGeometry x="1600" y="520" width="80" height="80" as="geometry" />
        </mxCell>
        <mxCell id="jtiA2OvrKeA1y7BBMs1h-306" value="" style="whiteSpace=wrap;html=1;aspect=fixed;fillColor=#EA6B66;" parent="1" vertex="1">
          <mxGeometry x="1280" y="200" width="80" height="80" as="geometry" />
        </mxCell>
        <mxCell id="jtiA2OvrKeA1y7BBMs1h-307" value="" style="whiteSpace=wrap;html=1;aspect=fixed;fillColor=#EA6B66;" parent="1" vertex="1">
          <mxGeometry x="1360" y="200" width="80" height="80" as="geometry" />
        </mxCell>
        <mxCell id="jtiA2OvrKeA1y7BBMs1h-308" value="" style="whiteSpace=wrap;html=1;aspect=fixed;fillColor=#EA6B66;" parent="1" vertex="1">
          <mxGeometry x="1440" y="200" width="80" height="80" as="geometry" />
        </mxCell>
        <mxCell id="jtiA2OvrKeA1y7BBMs1h-309" value="" style="whiteSpace=wrap;html=1;aspect=fixed;strokeColor=#000000;fillColor=#EA6B66;" parent="1" vertex="1">
          <mxGeometry x="1520" y="200" width="80" height="80" as="geometry" />
        </mxCell>
        <mxCell id="jtiA2OvrKeA1y7BBMs1h-310" value="" style="whiteSpace=wrap;html=1;aspect=fixed;strokeColor=#000000;fillColor=#EA6B66;" parent="1" vertex="1">
          <mxGeometry x="1600" y="200" width="80" height="80" as="geometry" />
        </mxCell>
        <mxCell id="jtiA2OvrKeA1y7BBMs1h-311" value="" style="whiteSpace=wrap;html=1;aspect=fixed;fillColor=#EA6B66;" parent="1" vertex="1">
          <mxGeometry x="1280" y="280" width="80" height="80" as="geometry" />
        </mxCell>
        <mxCell id="jtiA2OvrKeA1y7BBMs1h-312" value="" style="whiteSpace=wrap;html=1;aspect=fixed;fillColor=#EA6B66;" parent="1" vertex="1">
          <mxGeometry x="1360" y="280" width="80" height="80" as="geometry" />
        </mxCell>
        <mxCell id="jtiA2OvrKeA1y7BBMs1h-313" value="" style="whiteSpace=wrap;html=1;aspect=fixed;fillColor=#EA6B66;" parent="1" vertex="1">
          <mxGeometry x="1440" y="280" width="80" height="80" as="geometry" />
        </mxCell>
        <mxCell id="jtiA2OvrKeA1y7BBMs1h-314" value="" style="whiteSpace=wrap;html=1;aspect=fixed;strokeColor=#000000;fillColor=#EA6B66;" parent="1" vertex="1">
          <mxGeometry x="1520" y="280" width="80" height="80" as="geometry" />
        </mxCell>
        <mxCell id="jtiA2OvrKeA1y7BBMs1h-315" value="" style="whiteSpace=wrap;html=1;aspect=fixed;strokeColor=#000000;fillColor=#EA6B66;" parent="1" vertex="1">
          <mxGeometry x="1600" y="280" width="80" height="80" as="geometry" />
        </mxCell>
        <mxCell id="jtiA2OvrKeA1y7BBMs1h-316" value="" style="whiteSpace=wrap;html=1;aspect=fixed;fillColor=#999999;" parent="1" vertex="1">
          <mxGeometry x="1680" y="-40" width="80" height="80" as="geometry" />
        </mxCell>
        <mxCell id="jtiA2OvrKeA1y7BBMs1h-317" value="" style="whiteSpace=wrap;html=1;aspect=fixed;fillColor=#999999;" parent="1" vertex="1">
          <mxGeometry x="1760" y="-40" width="80" height="80" as="geometry" />
        </mxCell>
        <mxCell id="jtiA2OvrKeA1y7BBMs1h-318" value="" style="whiteSpace=wrap;html=1;aspect=fixed;fillColor=#999999;" parent="1" vertex="1">
          <mxGeometry x="1840" y="-40" width="80" height="80" as="geometry" />
        </mxCell>
        <mxCell id="jtiA2OvrKeA1y7BBMs1h-319" value="" style="whiteSpace=wrap;html=1;aspect=fixed;fillColor=#999999;" parent="1" vertex="1">
          <mxGeometry x="1920" y="-40" width="80" height="80" as="geometry" />
        </mxCell>
        <mxCell id="jtiA2OvrKeA1y7BBMs1h-320" value="" style="whiteSpace=wrap;html=1;aspect=fixed;fillColor=#999999;" parent="1" vertex="1">
          <mxGeometry x="2000" y="-40" width="80" height="80" as="geometry" />
        </mxCell>
        <mxCell id="jtiA2OvrKeA1y7BBMs1h-321" value="" style="whiteSpace=wrap;html=1;aspect=fixed;fillColor=#999999;" parent="1" vertex="1">
          <mxGeometry x="1680" y="40" width="80" height="80" as="geometry" />
        </mxCell>
        <mxCell id="jtiA2OvrKeA1y7BBMs1h-322" value="" style="whiteSpace=wrap;html=1;aspect=fixed;fillColor=#999999;" parent="1" vertex="1">
          <mxGeometry x="1760" y="40" width="80" height="80" as="geometry" />
        </mxCell>
        <mxCell id="jtiA2OvrKeA1y7BBMs1h-323" value="" style="whiteSpace=wrap;html=1;aspect=fixed;fillColor=#999999;" parent="1" vertex="1">
          <mxGeometry x="1840" y="40" width="80" height="80" as="geometry" />
        </mxCell>
        <mxCell id="jtiA2OvrKeA1y7BBMs1h-324" value="" style="whiteSpace=wrap;html=1;aspect=fixed;fillColor=#999999;" parent="1" vertex="1">
          <mxGeometry x="1920" y="40" width="80" height="80" as="geometry" />
        </mxCell>
        <mxCell id="jtiA2OvrKeA1y7BBMs1h-325" value="" style="whiteSpace=wrap;html=1;aspect=fixed;fillColor=#999999;" parent="1" vertex="1">
          <mxGeometry x="2000" y="40" width="80" height="80" as="geometry" />
        </mxCell>
        <mxCell id="jtiA2OvrKeA1y7BBMs1h-326" value="" style="whiteSpace=wrap;html=1;aspect=fixed;fillColor=#999999;" parent="1" vertex="1">
          <mxGeometry x="1680" y="120" width="80" height="80" as="geometry" />
        </mxCell>
        <mxCell id="jtiA2OvrKeA1y7BBMs1h-327" value="" style="whiteSpace=wrap;html=1;aspect=fixed;fillColor=#999999;" parent="1" vertex="1">
          <mxGeometry x="1760" y="120" width="80" height="80" as="geometry" />
        </mxCell>
        <mxCell id="jtiA2OvrKeA1y7BBMs1h-328" value="" style="whiteSpace=wrap;html=1;aspect=fixed;fillColor=#999999;" parent="1" vertex="1">
          <mxGeometry x="1840" y="120" width="80" height="80" as="geometry" />
        </mxCell>
        <mxCell id="jtiA2OvrKeA1y7BBMs1h-329" value="" style="whiteSpace=wrap;html=1;aspect=fixed;fillColor=#999999;" parent="1" vertex="1">
          <mxGeometry x="1920" y="120" width="80" height="80" as="geometry" />
        </mxCell>
        <mxCell id="jtiA2OvrKeA1y7BBMs1h-330" value="" style="whiteSpace=wrap;html=1;aspect=fixed;fillColor=#999999;" parent="1" vertex="1">
          <mxGeometry x="2000" y="120" width="80" height="80" as="geometry" />
        </mxCell>
        <mxCell id="jtiA2OvrKeA1y7BBMs1h-331" value="" style="whiteSpace=wrap;html=1;aspect=fixed;fillColor=#999999;" parent="1" vertex="1">
          <mxGeometry x="1680" y="-200" width="80" height="80" as="geometry" />
        </mxCell>
        <mxCell id="jtiA2OvrKeA1y7BBMs1h-332" value="" style="whiteSpace=wrap;html=1;aspect=fixed;fillColor=#999999;" parent="1" vertex="1">
          <mxGeometry x="1760" y="-200" width="80" height="80" as="geometry" />
        </mxCell>
        <mxCell id="jtiA2OvrKeA1y7BBMs1h-333" value="" style="whiteSpace=wrap;html=1;aspect=fixed;fillColor=#999999;" parent="1" vertex="1">
          <mxGeometry x="1840" y="-200" width="80" height="80" as="geometry" />
        </mxCell>
        <mxCell id="jtiA2OvrKeA1y7BBMs1h-334" value="" style="whiteSpace=wrap;html=1;aspect=fixed;fillColor=#999999;" parent="1" vertex="1">
          <mxGeometry x="1920" y="-200" width="80" height="80" as="geometry" />
        </mxCell>
        <mxCell id="jtiA2OvrKeA1y7BBMs1h-335" value="" style="whiteSpace=wrap;html=1;aspect=fixed;fillColor=#999999;" parent="1" vertex="1">
          <mxGeometry x="2000" y="-200" width="80" height="80" as="geometry" />
        </mxCell>
        <mxCell id="jtiA2OvrKeA1y7BBMs1h-336" value="" style="whiteSpace=wrap;html=1;aspect=fixed;fillColor=#999999;" parent="1" vertex="1">
          <mxGeometry x="1680" y="-120" width="80" height="80" as="geometry" />
        </mxCell>
        <mxCell id="jtiA2OvrKeA1y7BBMs1h-337" value="" style="whiteSpace=wrap;html=1;aspect=fixed;fillColor=#999999;" parent="1" vertex="1">
          <mxGeometry x="1760" y="-120" width="80" height="80" as="geometry" />
        </mxCell>
        <mxCell id="jtiA2OvrKeA1y7BBMs1h-338" value="" style="whiteSpace=wrap;html=1;aspect=fixed;fillColor=#999999;" parent="1" vertex="1">
          <mxGeometry x="1840" y="-120" width="80" height="80" as="geometry" />
        </mxCell>
        <mxCell id="jtiA2OvrKeA1y7BBMs1h-339" value="" style="whiteSpace=wrap;html=1;aspect=fixed;fillColor=#999999;" parent="1" vertex="1">
          <mxGeometry x="1920" y="-120" width="80" height="80" as="geometry" />
        </mxCell>
        <mxCell id="jtiA2OvrKeA1y7BBMs1h-340" value="" style="whiteSpace=wrap;html=1;aspect=fixed;fillColor=#999999;" parent="1" vertex="1">
          <mxGeometry x="2000" y="-120" width="80" height="80" as="geometry" />
        </mxCell>
        <mxCell id="jtiA2OvrKeA1y7BBMs1h-341" value="" style="whiteSpace=wrap;html=1;aspect=fixed;fillColor=#999999;" parent="1" vertex="1">
          <mxGeometry x="1280" y="-40" width="80" height="80" as="geometry" />
        </mxCell>
        <mxCell id="jtiA2OvrKeA1y7BBMs1h-342" value="" style="whiteSpace=wrap;html=1;aspect=fixed;fillColor=#999999;" parent="1" vertex="1">
          <mxGeometry x="1360" y="-40" width="80" height="80" as="geometry" />
        </mxCell>
        <mxCell id="jtiA2OvrKeA1y7BBMs1h-343" value="" style="whiteSpace=wrap;html=1;aspect=fixed;fillColor=#999999;" parent="1" vertex="1">
          <mxGeometry x="1440" y="-40" width="80" height="80" as="geometry" />
        </mxCell>
        <mxCell id="jtiA2OvrKeA1y7BBMs1h-344" value="" style="whiteSpace=wrap;html=1;aspect=fixed;strokeColor=#000000;fillColor=#999999;" parent="1" vertex="1">
          <mxGeometry x="1520" y="-40" width="80" height="80" as="geometry" />
        </mxCell>
        <mxCell id="jtiA2OvrKeA1y7BBMs1h-345" value="" style="whiteSpace=wrap;html=1;aspect=fixed;strokeColor=#000000;fillColor=#999999;" parent="1" vertex="1">
          <mxGeometry x="1600" y="-40" width="80" height="80" as="geometry" />
        </mxCell>
        <mxCell id="jtiA2OvrKeA1y7BBMs1h-346" value="" style="whiteSpace=wrap;html=1;aspect=fixed;fillColor=#999999;" parent="1" vertex="1">
          <mxGeometry x="1280" y="40" width="80" height="80" as="geometry" />
        </mxCell>
        <mxCell id="jtiA2OvrKeA1y7BBMs1h-347" value="" style="whiteSpace=wrap;html=1;aspect=fixed;fillColor=#999999;" parent="1" vertex="1">
          <mxGeometry x="1360" y="40" width="80" height="80" as="geometry" />
        </mxCell>
        <mxCell id="jtiA2OvrKeA1y7BBMs1h-348" value="" style="whiteSpace=wrap;html=1;aspect=fixed;fillColor=#999999;" parent="1" vertex="1">
          <mxGeometry x="1440" y="40" width="80" height="80" as="geometry" />
        </mxCell>
        <mxCell id="jtiA2OvrKeA1y7BBMs1h-349" value="" style="whiteSpace=wrap;html=1;aspect=fixed;strokeColor=#000000;fillColor=#999999;" parent="1" vertex="1">
          <mxGeometry x="1520" y="40" width="80" height="80" as="geometry" />
        </mxCell>
        <mxCell id="jtiA2OvrKeA1y7BBMs1h-350" value="" style="whiteSpace=wrap;html=1;aspect=fixed;strokeColor=#000000;fillColor=#999999;" parent="1" vertex="1">
          <mxGeometry x="1600" y="40" width="80" height="80" as="geometry" />
        </mxCell>
        <mxCell id="jtiA2OvrKeA1y7BBMs1h-351" value="" style="whiteSpace=wrap;html=1;aspect=fixed;fillColor=#EA6B66;" parent="1" vertex="1">
          <mxGeometry x="1280" y="120" width="80" height="80" as="geometry" />
        </mxCell>
        <mxCell id="jtiA2OvrKeA1y7BBMs1h-352" value="" style="whiteSpace=wrap;html=1;aspect=fixed;fillColor=#EA6B66;" parent="1" vertex="1">
          <mxGeometry x="1360" y="120" width="80" height="80" as="geometry" />
        </mxCell>
        <mxCell id="jtiA2OvrKeA1y7BBMs1h-353" value="" style="whiteSpace=wrap;html=1;aspect=fixed;fillColor=#999999;" parent="1" vertex="1">
          <mxGeometry x="1440" y="120" width="80" height="80" as="geometry" />
        </mxCell>
        <mxCell id="jtiA2OvrKeA1y7BBMs1h-354" value="" style="whiteSpace=wrap;html=1;aspect=fixed;strokeColor=#000000;fillColor=#999999;" parent="1" vertex="1">
          <mxGeometry x="1520" y="120" width="80" height="80" as="geometry" />
        </mxCell>
        <mxCell id="jtiA2OvrKeA1y7BBMs1h-355" value="" style="whiteSpace=wrap;html=1;aspect=fixed;strokeColor=#000000;fillColor=#999999;" parent="1" vertex="1">
          <mxGeometry x="1600" y="120" width="80" height="80" as="geometry" />
        </mxCell>
        <mxCell id="jtiA2OvrKeA1y7BBMs1h-356" value="" style="whiteSpace=wrap;html=1;aspect=fixed;fillColor=#999999;" parent="1" vertex="1">
          <mxGeometry x="1280" y="-200" width="80" height="80" as="geometry" />
        </mxCell>
        <mxCell id="jtiA2OvrKeA1y7BBMs1h-357" value="" style="whiteSpace=wrap;html=1;aspect=fixed;fillColor=#999999;" parent="1" vertex="1">
          <mxGeometry x="1360" y="-200" width="80" height="80" as="geometry" />
        </mxCell>
        <mxCell id="jtiA2OvrKeA1y7BBMs1h-358" value="" style="whiteSpace=wrap;html=1;aspect=fixed;fillColor=#999999;" parent="1" vertex="1">
          <mxGeometry x="1440" y="-200" width="80" height="80" as="geometry" />
        </mxCell>
        <mxCell id="jtiA2OvrKeA1y7BBMs1h-359" value="" style="whiteSpace=wrap;html=1;aspect=fixed;fillColor=#999999;" parent="1" vertex="1">
          <mxGeometry x="1520" y="-200" width="80" height="80" as="geometry" />
        </mxCell>
        <mxCell id="jtiA2OvrKeA1y7BBMs1h-360" value="" style="whiteSpace=wrap;html=1;aspect=fixed;strokeColor=#000000;fillColor=#999999;" parent="1" vertex="1">
          <mxGeometry x="1600" y="-200" width="80" height="80" as="geometry" />
        </mxCell>
        <mxCell id="jtiA2OvrKeA1y7BBMs1h-361" value="" style="whiteSpace=wrap;html=1;aspect=fixed;fillColor=#999999;" parent="1" vertex="1">
          <mxGeometry x="1280" y="-120" width="80" height="80" as="geometry" />
        </mxCell>
        <mxCell id="jtiA2OvrKeA1y7BBMs1h-362" value="" style="whiteSpace=wrap;html=1;aspect=fixed;fillColor=#999999;" parent="1" vertex="1">
          <mxGeometry x="1360" y="-120" width="80" height="80" as="geometry" />
        </mxCell>
        <mxCell id="jtiA2OvrKeA1y7BBMs1h-363" value="" style="whiteSpace=wrap;html=1;aspect=fixed;fillColor=#999999;" parent="1" vertex="1">
          <mxGeometry x="1440" y="-120" width="80" height="80" as="geometry" />
        </mxCell>
        <mxCell id="jtiA2OvrKeA1y7BBMs1h-364" value="" style="whiteSpace=wrap;html=1;aspect=fixed;strokeColor=#000000;fillColor=#999999;" parent="1" vertex="1">
          <mxGeometry x="1520" y="-120" width="80" height="80" as="geometry" />
        </mxCell>
        <mxCell id="jtiA2OvrKeA1y7BBMs1h-365" value="" style="whiteSpace=wrap;html=1;aspect=fixed;strokeColor=#000000;fillColor=#999999;" parent="1" vertex="1">
          <mxGeometry x="1600" y="-120" width="80" height="80" as="geometry" />
        </mxCell>
        <mxCell id="jtiA2OvrKeA1y7BBMs1h-366" value="" style="whiteSpace=wrap;html=1;aspect=fixed;fillColor=#EA6B66;" parent="1" vertex="1">
          <mxGeometry x="1680" y="600" width="80" height="80" as="geometry" />
        </mxCell>
        <mxCell id="jtiA2OvrKeA1y7BBMs1h-367" value="" style="whiteSpace=wrap;html=1;aspect=fixed;fillColor=#EA6B66;" parent="1" vertex="1">
          <mxGeometry x="1760" y="600" width="80" height="80" as="geometry" />
        </mxCell>
        <mxCell id="jtiA2OvrKeA1y7BBMs1h-368" value="" style="whiteSpace=wrap;html=1;aspect=fixed;fillColor=#EA6B66;" parent="1" vertex="1">
          <mxGeometry x="1840" y="600" width="80" height="80" as="geometry" />
        </mxCell>
        <mxCell id="jtiA2OvrKeA1y7BBMs1h-369" value="" style="whiteSpace=wrap;html=1;aspect=fixed;fillColor=#EA6B66;" parent="1" vertex="1">
          <mxGeometry x="1920" y="600" width="80" height="80" as="geometry" />
        </mxCell>
        <mxCell id="jtiA2OvrKeA1y7BBMs1h-370" value="" style="whiteSpace=wrap;html=1;aspect=fixed;fillColor=#FAE637;" parent="1" vertex="1">
          <mxGeometry x="2000" y="600" width="80" height="80" as="geometry" />
        </mxCell>
        <mxCell id="jtiA2OvrKeA1y7BBMs1h-371" value="" style="whiteSpace=wrap;html=1;aspect=fixed;fillColor=#EA6B66;" parent="1" vertex="1">
          <mxGeometry x="1280" y="600" width="80" height="80" as="geometry" />
        </mxCell>
        <mxCell id="jtiA2OvrKeA1y7BBMs1h-372" value="" style="whiteSpace=wrap;html=1;aspect=fixed;fillColor=#EA6B66;" parent="1" vertex="1">
          <mxGeometry x="1360" y="600" width="80" height="80" as="geometry" />
        </mxCell>
        <mxCell id="jtiA2OvrKeA1y7BBMs1h-373" value="" style="whiteSpace=wrap;html=1;aspect=fixed;fillColor=#EA6B66;" parent="1" vertex="1">
          <mxGeometry x="1440" y="600" width="80" height="80" as="geometry" />
        </mxCell>
        <mxCell id="jtiA2OvrKeA1y7BBMs1h-374" value="" style="whiteSpace=wrap;html=1;aspect=fixed;fillColor=#EA6B66;" parent="1" vertex="1">
          <mxGeometry x="1520" y="600" width="80" height="80" as="geometry" />
        </mxCell>
        <mxCell id="jtiA2OvrKeA1y7BBMs1h-375" value="" style="whiteSpace=wrap;html=1;aspect=fixed;fillColor=#EA6B66;" parent="1" vertex="1">
          <mxGeometry x="1600" y="600" width="80" height="80" as="geometry" />
        </mxCell>
        <mxCell id="jtiA2OvrKeA1y7BBMs1h-376" value="" style="whiteSpace=wrap;html=1;aspect=fixed;fillColor=#FAE637;" parent="1" vertex="1">
          <mxGeometry x="2080" y="360" width="80" height="80" as="geometry" />
        </mxCell>
        <mxCell id="jtiA2OvrKeA1y7BBMs1h-377" value="" style="whiteSpace=wrap;html=1;aspect=fixed;fillColor=#FAE637;" parent="1" vertex="1">
          <mxGeometry x="2080" y="440" width="80" height="80" as="geometry" />
        </mxCell>
        <mxCell id="jtiA2OvrKeA1y7BBMs1h-378" value="" style="whiteSpace=wrap;html=1;aspect=fixed;fillColor=#FAE637;" parent="1" vertex="1">
          <mxGeometry x="2080" y="520" width="80" height="80" as="geometry" />
        </mxCell>
        <mxCell id="jtiA2OvrKeA1y7BBMs1h-379" value="" style="whiteSpace=wrap;html=1;aspect=fixed;fillColor=#999999;" parent="1" vertex="1">
          <mxGeometry x="2080" y="200" width="80" height="80" as="geometry" />
        </mxCell>
        <mxCell id="jtiA2OvrKeA1y7BBMs1h-380" value="" style="whiteSpace=wrap;html=1;aspect=fixed;fillColor=#FAE637;" parent="1" vertex="1">
          <mxGeometry x="2080" y="280" width="80" height="80" as="geometry" />
        </mxCell>
        <mxCell id="jtiA2OvrKeA1y7BBMs1h-381" value="" style="whiteSpace=wrap;html=1;aspect=fixed;fillColor=#999999;" parent="1" vertex="1">
          <mxGeometry x="2080" y="-40" width="80" height="80" as="geometry" />
        </mxCell>
        <mxCell id="jtiA2OvrKeA1y7BBMs1h-382" value="" style="whiteSpace=wrap;html=1;aspect=fixed;fillColor=#999999;" parent="1" vertex="1">
          <mxGeometry x="2080" y="40" width="80" height="80" as="geometry" />
        </mxCell>
        <mxCell id="jtiA2OvrKeA1y7BBMs1h-383" value="" style="whiteSpace=wrap;html=1;aspect=fixed;fillColor=#999999;" parent="1" vertex="1">
          <mxGeometry x="2080" y="120" width="80" height="80" as="geometry" />
        </mxCell>
        <mxCell id="jtiA2OvrKeA1y7BBMs1h-384" value="" style="whiteSpace=wrap;html=1;aspect=fixed;fillColor=#999999;" parent="1" vertex="1">
          <mxGeometry x="2080" y="-200" width="80" height="80" as="geometry" />
        </mxCell>
        <mxCell id="jtiA2OvrKeA1y7BBMs1h-385" value="" style="whiteSpace=wrap;html=1;aspect=fixed;fillColor=#999999;" parent="1" vertex="1">
          <mxGeometry x="2080" y="-120" width="80" height="80" as="geometry" />
        </mxCell>
        <mxCell id="jtiA2OvrKeA1y7BBMs1h-386" value="" style="whiteSpace=wrap;html=1;aspect=fixed;fillColor=#FAE637;" parent="1" vertex="1">
          <mxGeometry x="2080" y="600" width="80" height="80" as="geometry" />
        </mxCell>
        <mxCell id="jtiA2OvrKeA1y7BBMs1h-387" value="" style="whiteSpace=wrap;html=1;aspect=fixed;fillColor=none;strokeWidth=11;" parent="1" vertex="1">
          <mxGeometry x="1440" y="-40" width="560" height="560" as="geometry" />
        </mxCell>
        <mxCell id="jtiA2OvrKeA1y7BBMs1h-388" value="" style="whiteSpace=wrap;html=1;aspect=fixed;fillColor=#EA6B66;strokeColor=#CC0000;fontColor=#333333;strokeWidth=13;" parent="1" vertex="1">
          <mxGeometry x="1680" y="200" width="80" height="80" as="geometry" />
        </mxCell>
        <mxCell id="jtiA2OvrKeA1y7BBMs1h-390" value="&lt;font face=&quot;Latin Modern Roman&quot; style=&quot;font-size: 60px;&quot;&gt;Left Image&lt;/font&gt;" style="text;html=1;strokeColor=none;fillColor=none;align=center;verticalAlign=middle;whiteSpace=wrap;rounded=0;" parent="1" vertex="1">
          <mxGeometry x="244" y="690" width="340" height="110" as="geometry" />
        </mxCell>
        <mxCell id="jtiA2OvrKeA1y7BBMs1h-391" value="&lt;font face=&quot;Latin Modern Roman&quot; style=&quot;font-size: 60px;&quot;&gt;Right Image&lt;/font&gt;" style="text;html=1;strokeColor=none;fillColor=none;align=center;verticalAlign=middle;whiteSpace=wrap;rounded=0;" parent="1" vertex="1">
          <mxGeometry x="1550" y="690" width="340" height="110" as="geometry" />
        </mxCell>
        <mxCell id="jtiA2OvrKeA1y7BBMs1h-392" value="&lt;font face=&quot;Latin Modern Roman&quot; style=&quot;font-size: 60px;&quot;&gt;Left patch&lt;/font&gt;" style="text;html=1;strokeColor=none;fillColor=#999999;align=center;verticalAlign=middle;whiteSpace=wrap;rounded=0;" parent="1" vertex="1">
          <mxGeometry x="230" y="-161" width="340" height="110" as="geometry" />
        </mxCell>
        <mxCell id="jtiA2OvrKeA1y7BBMs1h-393" value="&lt;font face=&quot;Latin Modern Roman&quot; style=&quot;font-size: 60px;&quot;&gt;Right patch&lt;/font&gt;" style="text;html=1;strokeColor=none;fillColor=#999999;align=center;verticalAlign=middle;whiteSpace=wrap;rounded=0;" parent="1" vertex="1">
          <mxGeometry x="1550" y="-170" width="340" height="110" as="geometry" />
        </mxCell>
      </root>
    </mxGraphModel>
  </diagram>
</mxfile>
